<svg enable-background="new -117.5 -65.886 1000.116 560.795" height="236.854386" viewBox="-117.5 -65.886 1000.116 560.795" width="422.200331" xmlns="http://www.w3.org/2000/svg"><g><path d="m393.642-49.847c-1.334-.435-3.854-1.319-5.289-1.043l-.42.145.813.405-1.942-.291-.014 1.203.145.262c1.984.507 3.912 1.26 6.693.941v-.145l-2.638-1.26-.275-.015v-.13c1.826.362 3.361 1.159 4.595 1.985l.564-.391-.726 1.739c-2.969-.478-5.188-1.55-6.333 1.752l.972.827-.711.246-.145.812c1.188 1.087 1.87 1.681 3.335 2.231l.274 1.768.825.159.552 1.508 4.593 3.491.551 1.26 3.348 2v.405c2.202 1.029 5.593.926 7.446 2.043l.131.68c1.913.522 3.84 1.029 5.752 1.579l.436-.13-.132-.956 2.244-2.797-.405-1.796c1.58-.203 2.087-1.072 3.377-1.391l-.682-1.261.827.043.436-.419-1.263-1.13-.289-.014v-.131l2.391.217.288-.131-.563-.708.146-.131c1.057.595 1.722.652 3.375.681l.275-1.087.693-.115-.693 1.072.13.274c3.261.739 5.521-.55 8.693-1.057v-.812c3.753-1.102 9.099 1.217 12.75.927 1.115-.102-13.418-9.373-28.586-13.098-12.331-3.012-25.907-.695-25.544-.216m26.37 14.315-.422-.289zm-167.011 295.089c1.651 2.767 3.173 6.562 5.361 8.807 4.52 4.663 11.967 7.16 14.808 13.172 1.389 1.334 2.751 2.681 4.112 4.028l-.246 1.88c.246 1.899 1.072 4.492.783 6.492l-.376 3.041.449 1.87c-.333 1.883-1.159 3.84-1.188 6.231h-.972l-.131 1.999h.726l-.52 3.783.463 3.736-1.085 1.435.274 1.436c-.218 2.551-.725 4.751-1.448 6.201-.753 1.581.027 3.1-1.333 4.029.217 1.997.899 3.013.753 5.172l-.986.142c-.318 4.722 2.043 7.263.552 10.752l.591 1.998c-1.172 3.118-2.578 6.072-2.823 9.724l-.421-.291.016 1.854-1.262-.406-.13.13c.26 2.594 1.521 5.377 2.579 7.534-.115 3-1.882 3.898.349 7.273v.552l-.711-.422c-.45 1.349.304 2.826-.086 4.392l1.825 1.001.421-.133c.303-1.491.174-3.273-.609-4.417l.276-.275.984.434h.132l-.276-.579.276-.552.709.843-.419.565.174 2.422.694.563c-.391 2.421.059 4.101.044 6.65h-.275l-.436-3.114-1.97-1.565-.811 2.551 1.116 1.144-.117 1.972h-.986v.13l.421.868-1.102.841v.581l1 .549.551-.564 2.508 1.42-.552-.146.434.567-.418 1.404-1.391-.553v.146l.419.407-.695.418c.725 1.392.912 3.492 1.84 4.667l1.956.97-1.102-.261v.131l.419 1.696.696.275.55-1.262.436.986h-.566l-.131.13.71 2.406 1.68-.565.827.565-.276.552-1.403-.421-.131.291 2.113 1.955-.29-.564 2.374 1.972v.143l-2.23-.97 2.797 1.81-.131.421 6.854 3.767-.16.566c1.377 1.259 5.651 2.854 7.709 3.375v-.158l-.986-.957 2.492.464.014-.059.073.071.913.48v-.552l1.942.276h.143l.146-.276v-.405c-3.841-.478-5.072-3.767-8.1-4.637l.391-.565-2.782-1.813-.302-.158.434-.261 2.1.841v-.146c-1.145-1.419-2.912-2.39-3.101-4.781l.131-.261 1.956-.434.261-2.26 3.491-1.813.117-2.129c-2.317-1.479-5.665-1.988-4.927-5.363 1.044-.795 2.507-1.1 3.897-.549h.565l-.434-.567.984-.723-.449-2.393c.594-.855 1.102-1.246 2.507-1.273l-1.681-1.29-.274-.146.97-.391 1.406 1.552 1.116.131.434-.421-.448-1.695-.29-.434-1.521.13.694.579v.161l-.97-.307-1.404-.985-.871-3.549c1.058-1.289 3.462 1.32 4.912 1.695l3.347-.13.668-1.565-.552.291-.565-.579c.638-.973 1.637-2.058 1.087-3.391l.566.261h.144l-.276-.84c1.985.824 10.924 2.112 13.417.71l3.449-3.536-.031-1.985c-1.159-.407-1.722-.492-1.81-1.987l1.101-1.013c-.579-2.507-3.115-2.739-4.229-4.694l.552-.727.417-.142.987 1.577 2.681.579 2.81 2.436h2.363l2.259.985c2.84-.335 3.304-1.64 4.998-2.826l2.927-1.274 2.216-2.854c1.856-.784 3.71-1.608 5.58-2.392 2.202-1.463 3.362-4.128 5.418-5.693 2.58-1.971 5.81-2.349 6.809-5.956l-.564-.144c.376-1.391.493-3.231 1.231-5.131.608-1.55 10.475-6.533 12.995-5.78l1.694 1.289.262-.985-.565-.143v-.161l3.782-1.782v-.71-.418c2.622-.029 7.635 1.014 10.112 2.216l.681-.566c-.144-2.201 2.565-1.332 4.202-2.114 1.072-.812 1.175-3.434 2.798-4.23 2.622-1.32 2.478-2.116 4.33-3.362l2.073-1.273c1.883-3.016.608-4.361 4.478-5.78.651-2.102 1.158-3.74 2.375-5.219l1.797-2.129c.666-1.854.274-3.403.985-5.099.753-1.841 2.347-3 2.506-5.375 1.738-.9 3.259-.58 4.911-1.739 2.377-2.116 4.755-4.187 7.128-6.289l2.55-.52 3.217-2.478c3.885-2.505 7.042-4.709 8.549-9.605l.132-2.839c.419-1.785 2.521-13.33 2.478-13.33-108.289-.222-188.585 1.055-188.585 1.055m32.527 143.914-.274-.273.13-.134.55.276zm1.116 1.26.842-.552.417.146h.292zm3.782 4.203-.132-.275h.29zm2.101-2.507v.13l-1.261.289v.131l.694 1.003-1.246-1.552-.302-.144-.407.985-.406-.158-.451-2.783.985 1.521zm-1.261-2.101.115.275-.55.288-.418-.434-.277-.13.421-.146zm13.14-34.049.697 1v.16zm39.699-17.3v.726l-3.071 1.261-.71-.288v-.146c1.404-.971 3.158-1.856 3.895-3.552l1.957-.272.015 1.289zm12.099-9.648.13-.434.132.158zm.26-.71.146-.421h.143zm25.717-13.763.132-.582h.565zm-124.92-273.023c1 .826 3.969-.869 5.419-.898l2.767 4.36c1.16 2.637-2.072 3.984-1.723 6.013l.289.145.276-1.117.29-.145.681.666-1.55 1.173.276 3.187.71.246.26-.55.131.262-.97 1.695.565-.146.26 1.537c.059 2.159 2.29 2.145 1.247 4.434l3.911.464c-.029-1.724 2.188-3.551 2.956-5.246.957-2.158.044-5.129.044-7.823l.84-.291c-.303-1.984-.624-3.984-.941-5.968.694-7.621 6.782-9.461 12.851-11.287 2.884-.855 1.824-3.332 7.054-2.29 1.335-2.491 5.783-1.998 8.361-2.636l.13-.274-.696-.841v-.131l3.68-.812.71-1.116-2.521-1.101v-.131l2.667.419-.017 1.087c.116-.042.407-2.926.493-4.404l-.854-.274-.131-.682 1.436-2.607.042-3.289 1.999-1.782c-1.593 2.261-.782 2.274-1.333 4.941l1.274.405-2.129 2.056-.158.291.694.26c.812-1.709 4.1-2.811 5.563-5.187l-.811-2.753 1.971 1.391-.579.681v.145c2.174.274 5.115-2.55 6.127-4.086l-.421-.535-.143-.275c2.55-.347 6.144.42 8.925.103l-.696-.826c-2.129.26-4.027-.579-6.085-.073 2.479-1.984 10.112.769 13.459-.492.377.87 1.146.825 2.811.87l.565-.797-.406-.696-.869.798-1.13-.146c-.203-.854.115-2.014-1.376-2.231v-.274l1.983-.507-.549-.826 3.853-2.665c2.231.448 3.637.376 5.811-.826l.274.812c2.752-.202 5.348.043 8.23-.738l-.42-.841 2.274.624c2.131.45 6.288-.015 8.084-.593l.275.274-1.985.507-.144.26 2.245.479c-2.695.419-5.374.855-8.084 1.26l-.146.274 1.001-.246-.567.26c-.681.826-.883.869-.897 2.317l.869.029 1.26 1.276c1.957.101 3.796-1.203 5.969-1.319l.725-.956.276.42.577-.536 1.407 1.144c1.203-1.231 8.707.333 10.924-.291l.274.015-1.694-.624.723-.536c1.738.608 3.61.231 5.941.246l.015-.406-2.115-1.593v-.16l1.161-1.317-.29-.84-.855-.188c-1.406.724-4.594 1.462-4.723 3.419l-1.522-1.028c-3.243.347-4.506-1.305-7.243-1.608l-.551-.71.564.014.146-.291-2.534-1.028-1.263-2.217.727-.538-1.552-.462v-.262c1.478-.232 2.159-1.029 3.565-1.55l.275-.538v-.145c-1.435.436-2.696.19-4.824.131l-2.088-1.55-.143-.291c1.912.188 2.593 1.029 4.245 1.217 1.464-.174 2.927-.348 4.39-.536l.015-.42-.131-.812.536.145v-.131c-3.418-4.622-15.532-2.97-20.764-2.057-2.099.376-3.548 2.346-6.389 2.317 1.218-1.16 8.634-3.941 10.954-4.665l4.94.261 1.275-1.333c1.927-1 4.752-.624 7.229.058 3.261.927 6.318 1.217 9.591 2.362 1.986.667 8.07 3.159 10.171 2.81 1.607-.246 3.085-.738 4.535-1.333 3.42-1.391 10.244 2.115 12.591-.449l-.144-.709.29.159.462-3.695-2.391-.913.117-.565c-1.449-.086-1.563-.436-2.535-.377-.274-1.652-1.753-2.246-3.507-2.463v-.146l3.666.435-2.376-2.029-3.1-.667-.42-.841-2.683-.767-1.664-1.419.145-.681-3.666-2.305.725-.26.159-2.16-.985-.436.29-1.622c-1.26-.521-2.65-1.029-2.492-2.521l-.71-.043c-.824-1.276-4.072-5.361-3.984-6.708-3.449.927-7.896 6.461-12.577 2.68-.783.058-1.317-1.144-2.797-1.391l-.13-1.203-.985-.146c.435-1.145.871-1.333.769-2.81l1.565-.652-.421-.667-1.274.507c-.9-1.014-2.97-1.493-4.608-1.927l-.13-.276v-.13l.709-.275v-.13c-1.085-.956-3.332-2.637-4.709-3.116l-3.519.101c-2.941-.984-5.651-2.129-8.65-2.029l-.842.783-.174.521.696.536-2.566 1.317.928 2.246-5.084 1.841-.451.767c1.782.595 3.29 1.926 3.418 4.144-1.521 3.246-4.896 3.782-8.969 4.463-1.446.042-2.912.071-4.36.116h-.291l.812 1.738c-.781 1.434-2.288 3.172-1.23 4.796l-2.724 1.317-.016 1.203-.564.131-.536-1.072-2.564 1.072-1.377-.667c-.462-2.217-1.883-3.507-2.811-5.594l1.856-1.985-.086-1.072 2.289-2.26c-2.884-.231-11.244-2.796-12.925-4.405l-1.608-2.462-3.868-1.797c-1.446.014-2.897.044-4.345.057h-.26l2.492-3.824-2.927-.319.028-.667c2.753-3.172 11.547-6.446 15.299-6.187l-.535-.636c1.362.1 2.868.291 4.331.086l-.087-1.29h-.276v-.146c2.16.652 9.521.566 12.911-1.159l.016-.493c1.447-.318 2.897-.624 4.362-.956h.275v-.102l-.973-.407-.131-.262 2.941.246 3.017 2.346.144-.405.143-.116-.58.116-.927-1.029v-.131l1.377.667-.101-1.174 1.65 1.16v-.391c2.377-.61 4.637-.522 6.463-1.059l-1.086-1.172c.101-.073-13.084-7.317-28.44-7.085-9.854.16-45.451 12.374-73.574 26.573-21.458 10.837-37.96 24.414-38.975 25.398-8.578 7.461-16.822 16.605-21.167 27.731l-1.479 1.724-2.855 7.447 1.217.116c-.246 1.898.883 1.927.376 4.26-.753 3.36-3.159 7.461-4.173 11.141l-.797 3.607c.246 1.232.724 2.927.246 4.565l-1.594 2.738-1.579-.029-.131.029c-.203 1.884.478 3.014.378 4.68l.652-.246c1.13 2.898.594 6.144-1.594 8.201.652 2.768 2.1 4.318 1.565 8.549v.117l.274.102c2.506-2.607 1.869-2.289 2.114-5.637l-.246-.927-.667.797-.145.029c-.333-2.146 1.826-7.563 2.275-9.825.26-1.492-.521-4.071-.115-5.839.927-4.129 1.405-13.112 4.839-15.705l.536.883.521-.347c.726 2.462-2.274 6.07-1.912 9.301l-1.593 1.752.391.348.812-.796.376 4.26.407.073.26.246c-.45.941-.825 1.434-.812 2.898l.667.318-.405 1.724.666-.086c.043 1.854-.709 2.42-1.593 3.694.202 1.695.984 2.146 1.71 3.391l-.667 1.768c1.348 1.811 3.072 14.126.521 15.953l-.29 1.579-1.319.739c-1.941 4.767 2.275 6.014 2.377 9.838l.898.681s15.605-.58 24.876-.783l-1.144-.696-1.87-11.127.941-1.507c-1.376-2.941.681-6.041 1.912-8.708.956-2.348 1.898-4.651 2.87-6.984.869-1.086 2.592-.796 3.129-2.811.334-1.291-.218-2.521.434-4.201.609-1.522 2.276-2 2.203-3.956l2.579-1.333.435-.725-.145.841.811-.348.551-.754-.405-.652c2.419.262 4.187-.681 6.303-1.912l.696-1.289 1.1-.783.131.131-.55.595.536.26 4.128-.595 5.07 1.725.407-.029v-.551l-.942-.086-.146-.377 1.101-.362 1.362 1.854-.274.16-.274.419 1.362 1.029 1.942-.812.26.956 1.681-1.348 1.782 1.84.405.246h.13l.565-.71-1.376-1.319-.276-.26 1.521-.783.16-1.246-1.101.624h-.145l-.276-.391c2.146-1.405 4.71-1.043 6.926-.638l.421-.984.435-.319-.029 1.812c3.129.378 5.434-.855 7.752 1.608zm68.212-33.005.304-.146h.42l-.725.291zm52.955-6.405.276.015-.434.261zm-.855.392.697.028.143.419v.146l-1.709-.073zm-11.213-.956-2.55.333-.42-.291.144-.535zm30.628-19.763.566.174v.131l-.435.262zm-10.156-2.564.999-.246c1.363.188 2.71.376 4.086.565-1.724.145-3.564.391-5.506.478zm-55.811 27.862-.143.42zm-154.635 17.01.261-.45zm1.071-1.117-.145.014c.275-1.449.871-2.492 1.362-4.071.972 1.752-.565 2.957-1.217 4.057m23.386 47.987v.131l-.521.057v-1.116zm26.035-33.76.274-.565zm14.591.333h-2.346l1.116-1.172 1.231 1.029zm107.765-94.667c1.752.262 4.071.493 5.997 1.376 1.941.87 2.434 2.086 4.593 2.434l-1.419-.015 2.217 1.493-.55.246 1.665 1.232h.55l-.536-.667v-.131c4.044 1.305 7.753 4.172 12.418 4.898l.578-.376v-.145c-1.347-1.796-4.592-3.782-6.823-4.68l-.116-.536 2.636 1.377.016-.536c2.492 1.493 5.403 3.245 7.926 4.724l.709-.117.291.015v-.144l-1.957-1.377 1.117.42h.143l-.417-1.086.158-.262.406.55 1.001-.667.694.84h.131l-.26-.551.97.029v-.29l-2.65-1.391-.133-.274.855-.117v-.145c-.768-.624-3.26-2.622-5.028-2.362l-1.361-2.159 1.116.015.144-.262-.55-.55c1.84.131 3.434 1.622 5.027 1.681-.564 1.855 3.043 2.347 4.303 3.332l1.563-.507-.434-.276.434-.521 2.117.159-.017.55.986.015-.419-.551.564.015.435-.116-.564-.825 2.795.072c-.347-1.203-1.926-1.681-3.347-1.579l.437-.391-1.406-.043c-.465-.188-.87-1.043-2.348-1.1l.537-.276-2.639-1.117-.275-.274.565-.246c-1.506-.304-1.854-.725-2.797-.189-.854-.695-.795-1.057-2.231-1.245l.291-.377-3.348-.869v-.131l.842-.116-.116-.812 3.071.841.26-.246-2.492-.985.144-.392 1.537.42.144-.131v-.391c-1.232-.927-1.537-1-3.493-.855l1.42-.507v-.131c-1.448-1.072-3.52-.536-4.998-1.391l-1.522-1.608-5.287-1.348.29-.405c-1.347-.607-2.696-1.043-4.159-1.738h1.116l.014-.13c-.667-1.043-6.982 1.608-8.185 3.187l1.767 2.187-.289.391h-.275l4.027.551.144.274-1.404-.015h-.275l2.231.391.406 1.072-1.824-.291 3.2 1.218.146-.521-1.407-.261.175-.797 2.349.927.666 2.129-6.607.753-.146.246 1.376 1.333v.145c-1.564-.448-3.215-.071-4.635-.303-3.072-.507-5.375-2.145-8.389-.304l.13.376c.855 1.585 3.534.961 5.288 1.237m19.24-.754-.434-.26zm-8.562-6.055.405.274zm3.811 4.81 1-.522c1.318.319 1.029 1.059 2.781 1.103l-.29.521.538.421c-1.655-.291-2.217-.436-4.058-.319zm-2.16 2.361 2.363 1.493.274.406c-1.071-.362-2.244-.521-3.634-.696l-.131-.26 1.26.015zm-5.751-5.736.841-.798.028-.391c-1.347-.333-2.362-.696-4.187-.667l-1.84.638-.146.666v.131zm-18.878 4.127-2.507-.507.449-1.058-3.985-2.362-.811-1.55-.29.376c-2.55-.231-5.476 1.043-6.23 2.782l-3.232.536 3.622.362-.564.405-.45.783c2.042.362 5.36-.203 6.751-1.086l2.363.667-.711.274c1.304 1.131 3.621 1.16 6.129 1.043zm-7.723-3.911.303-.782.392.376h.291zm49.942 3.115-.146.274h.276zm-53.753 2.26.116.912c2.101-.217 4.058-.115 5.91-.68l.145-.247-3.897-.652zm19.068-.246-.971-.274-.014.405.985.014zm-3.521.767.97.812 1.246.131.146-.131.014-.407-2.231-.667zm4.317.956h.564l.146-.26-.391-.536-1.405-.291zm-9.824.349-1.404.536-.304.507.392.667 2.549-.652.436-.52zm21.719.942.016-.131-.42-.015v.26zm-5.216 1.55-1.68-.696 1.117.681zm-14.792 1.738v-.145l-1.117-.116.29.261zm133.686 9.317-.681.102.42.464c-1.551.291-3.449-.738-5.041-1.116l-.146.131.291.579-2.246-1.231v.145l.855.884v.131l-1.116.086c-1.608-1.303-2.914-3.056-5.608-3.332l.695.724-1.116-.479-1.131.913-.144.291 5.476 1.362c-.912.652-1.868.377-3.375.116l-.13.145.13.291c2.535.594 3.578 1.289 5.316 2.203l.145.29-1.405-.362-.132.145.276.58c3.825 1 13.112 5.65 16.356 1.97v-.131c-1.678-1.088-4.1-2.667-5.172-3.941zm-109.462-5.477-.274-.014v.274zm13.489 1.189v-.131l-.694-.305zm.421.274v.131l1.81 1.116.725-.521-.434-.812-1.116-.291zm-10.013.869-.29.391 1.971.188.144-.275-.694-.419-.696-.16zm219.039 120.633.13.014c-.694-1.448-1.361-2.898-2.058-4.332l.407.595.29.159v-.274l-1.102-2.203.246-.116.985 1.057h.132l-.696-1.709 1.536 1.493c-.71-1.521-2.549-4.651-4.127-5.361l.549-.231c-.493-1.753-3.143-3.348-3.434-6.013h.13c.246 1.478 1.291 1.101 1.928 1.696l.132.014-1.637-2.376.811-.638 2.07 1.044.246 1.276c.146-1.695-.042-3.825-.289-4.434l-1.87-3.16c-2.145-3.491-3.666-6.403-5.245-10.459-.361-1-13.17-20.994-29.44-36.237-16.864-15.75-37.206-26.792-36.915-26.863l-1.537 1.086.304 1.464-1.26.608 1.724 1.884.291 1.448c1.303 1.912 3.97 2.912 4.997 5.246l1.115-.362.58 1.724c.695.883 4.361 2.984 5.766 2.158l.391-2.203.827-.362-.275-.652v-.131c3.911 1.854 5.854 6.707 10.012 8.388l.579 1.464-1.103 1.129 2.956 2.391-.969.072v.131l1.116.985.841.042v-1.058l-1.564-1.536.275-.507-.855-.957 1.565 1.797 1.664.086.132.015-.015-.406-1.103-1.377.133-.652 1.521.233-.58-1.087 5.608 5.463-.393 1.55-.682.202-2.361-.014-.146-.667-1.261-1.116.016.796-.841-.173-.391 1.55-.682-.174-.449-1.334-.694-.449.274.55-2.797-1.593.146-.262-1.261-.595-.145-.274.145-.232 2.782 1.709c-.579-1.275-1.854-3.101-3.362-2.681l-.855-1.986.552.291.132-.638c-1.317-1.477-3.101-2.303-3.841-4.346l-.813.348.293 1.173-.552-.014-.694.377c.462 2.449 5.533 6.259 5.258 7.404l.984.174 1.84 2.593-.275.768-2.086-.362v.667l-1.928.173-.275.638.552.972.999.043.564 1.608-.679.102-.161-.015.595 1.739-1.131-.174c-.462-1.391-.953-2.767-1.434-4.173l-.275-.145h-.145c.464 1.854 2.027 4.853.911 5.882l-2.766 1.623 1.145 2.594-1.521.768.014 1.348-.418.406c-1.725.362-3.637-1.145-4.896-1.579l-.146.131c.753 1.144 1.841 1.841 2.274 3.303l.406.392.015.13-2.522.26-1.68-1.231-3.23 1.116-.277.015 1.841 1.623-.824.16c1.49 1.348 3.634 1.014 5.749 1.769l6.725 6.477-.682-.565-.158.131c1.68 2.274 3.491 5.608 3.491 9.925-2.405.898-8.099-.709-11.286-1.087l-4.217.407-1.84-.507-.826 1.347-1.854.825-.566.319c.074 1.435.914 1.319 1.117 2.405l.709-.333c.291 2.435 1.682 4.101 2.508 6.346.736 2.015.318 7.954-.115 9.91l1.521 1.608.854-.478c.695 1.869 1.246 3.81 1.13 6.737l3.65.057 1.553-.971c2.419-1.088 3.577 4.637 6.185 5.1l2.71-2.97c1.897-.029 3.174-.305 4.738.217l.274-.624 1.246.493 1.172-3.491 1.538-.246c.026-.855-.536-2.086-.103-3.492l1.145-1.912c-4.217-2.883-.393-6.461-1.578-8.766l2.49-1.463 1.812-2.333c-.246-1.521-2.638-3.753-2.07-5.391l1.101-1.362c2.159.738 3.506 1.638 5.389 2.391.884-.884.667-2.534 2.334-2.782l.406-1.913v-.275c3.752.638 5.939 5.781 7.837 8.404l5.477 5.172 1.23.102.94 1.637c4.046 3.767 5.218 4.897 7 10.692l-1.666 1c-1.363-.043-1.363-.188-2.203-.883l-.289.695-.536-.479-.131-.015.116 1.884 5.896 4.723.159.014c-.319-2.129-1.376-3.201-1.376-5.796l.826.624h.144l-.419-3.434.564-.796c-.449-1.769-1.318-2-2.188-3.159l-.825-3.187.288-.246 3.015 3.084c-.724-3.043-3.724-5.651-6.301-6.925l-.407-1.855-2.332-.796c-2-1.667-2.926-4.274-4.521-6.332-1.378-1.753-3.969-2.463-4.68-4.883l.145-.955-1.378-1.927 1.104-.87.549.043 1.912 3.507.275.174.146-.971.694 1.448.407.333-.552-1.305 2.479 3.565 3.419 2.855-.551-.19.971 1.348.682.058-.682-.624.26-.115.84.652.132.274-.825.218 1.219.376c1.549.768 4.041 3.406 4.939 4.825.795 2.043 1.563 4.071 2.315 6.115.956 1.767 3.074 3.548 3.854 5.389l.421-.115-.017 1.419 2.204 1.565-.292 1.667c.986 1.391 1.943 2.709 2.492 4.52l.408.318.13.015-.262-1h.133l.971 2.159.26.159-.26-1.13zm-57.607-65.619-.146-.16.146-.246.276.015v.131zm-13.345 53.796-.13-.753.275-.014zm14.721-54.679.132-.232h.275zm10.099-1.276.854.333v.131zm19.095 30.947.421.174v.419zm24.139 30.209-1.229-1.231.535.174.985.797zm-269.095-103.94 3.46 1.724h.146l-.116-1.317-2.781-.667zm73.181 4.91.131.015.16-.291-.71-.159zm7.417 6.535-.418-.274.274.406.144.015zm-25.397 9.823c3.174 2 5.389 3.665 9.576 4.956l.291-.117v-.42c-2.231-1.927-5.983-4.477-9.722-4.694zm35.497 2-.146.405.42-.391zm106.736 29.788 2.247.376.261-1.624 4.636.421.42.014-.274-.695c2.13.1 3.2.043 4.88-.812l.116-.26-.274-.812-1.971-.19.813-2.391c-.335-1.391-2.841-4.129-4.362-2.376l-.42-.131c-.84-1.797-2.245-3.868-4.419-5.258l-2.551-1.088c-2.26-2.174-3.332-3.897-6.809-3.912l1.116-.796-.726-.536.118-3.072c-1.246-1.245-3.579-.927-5.248-.564l-.417-.798.969-1.347-.317-.956c-1.449-.305-2.855.333-4.218-.131v.956l.305 1.217-.292.131-.564.274.868 1.348v.144l-1.854-1.333-.579.811 2.999 1.319.29.55-.694.434.435 1.479 1.42-.145.145-.696-.016-.274h.145c.245 1.521 1.057 2.564 1.463 4.187h.578l.132-.26-.289-.695.854.536h.133l-.422-1.348 1.146.783.027 2.057 1.275 1.044h.146l-.304-.521v-.16l1.289.535v-.535l1.972-.407c.953 1.145.549 3.057 2.839 2.667l.737 2.289-3.375.029 1.001 1.216-.566.667.144.276 1.131-.436 1.159 1.479-1.824 1.391-.435.42 1.421 1.203c1.505-.796 2.866.204 4.534.768l1.1-.55-.114.94-2.812.015-1.927 3.738v.274l1.552.363zm-12.083-17.762v-.521l.275-.015.304.407zm-95.087-10.404.145-.376-2.276-.667-2.535.014-2.823 1.419c-1.537.754-2.174 2.695-4.13 3.129l-.016.957v.146l-.709-.319-1.855 1.448.855.738c-1.145-.246-2.623.479-3.954.667l.246 1.391c2.346.579 11.823 2.479 12.604 3.289l-.564-.029 2.811 1.116.303-.695 1.841.783c-1.159.436-2.42.754-4.392.623l-.158.551c2.984 1.159 5.376-.246 7.94-1.029l.565.738-1.437 2.015.58.724 1.971-.608-.42 1.651 2.115.521 2.274-2.245-.145-1.131-1.971.609-.145-.579 1.552-1.159.146-.276-.146-.144c-1.782.116-2.115.449-3.115 1.246l-.275-.566-.42-.173 3.391-1.768.291-.276-3.116-.564-.131-1.391 1.55-.754-3.666-1.434-.97-1.291-.435.131.145.55-.855-.029-.418-.724-.565.407-1.407-.479.275-.42-.709-.028-.276-.275v-.564l1.695-.058.017-.13-2.697-1.377-2.549 1c.42-1.391 2.868-2.638 4.274-2.984l.565-.667-1.145-.479v-.13l.014-.131 1.973.362zm87.64 3.984.971-.854-.274-1.348-.739-.131-1.101.972.71 1.086zm-88.657-2.36.306-.276-.29-.014zm88.092 2.376-.566.26 1.146 1.636.434.131-.434-1.783zm-87.8-1.666.288-.131v-.145l-.694-.159zm124.094 4.563-.421-.407.292.391zm-32.729-.362.145-.291-.567-.261zm-2.551-.233v-.144l-.418.014v.291zm2.275 1.045v.145l.146.131h.143l.145-.407h-.289zm-.422.304.017.406.276-.015zm-105.822-2.522-.275.146-.161.405 1.987.218-.709-.71zm19.37 1.551-.144.536 1.146.043zm89.756 4.027.117-1.912-1.115 1zm-1.014-1.607v.131l.291.131.144-.131-.289-.262zm-125.18.637 1.129.725c1.305-.233 1.116-.913 2.984-.854l.145-.146v-.131l-6.781-1.753-.42-.681-.116-1.246-.42-.145-1.579.624-.145.291c1.493 1.305 2.854 2.101 4.928 2.898zm129.237 6.505-.158-.246 1.42-1.014-.016-.666-2.724-2.261-2.68.333.274-.565-1.289-.507-2.115.768-.55 1.55 1.694.217-.551 1.116-3.853.058.565.84-.42.146 1.868.463-.983 1.028c1.1 1.449 2.026.593 3.708 1.058l-.694 1.594.014.826-.131 1-1.158-.057-.275.724 1.563-.261-1.001.638c1.696 4.085 7.638-1.202 10.245-1.1-.115-1.814-.927-4.74-2.753-5.682m-90.683-6.014-.291-.29-.145.407zm127.442 3.043.303.681.957.319zm-183.005-2.564.276.16.578-.681h-.42zm149.491 4.536.145.391.695-.145.131-.391-.695-.681zm-157.865-4.188.288-.261-.406-.435zm.998-.102-.274-.014v.274zm51.175 2.059.274.564.29-.26zm9.49.579-.436-.029-.565.405-.145.407.42.014.726-.378zm-51.188-1.434h.29zm41.552 1.824.42.16.29-.131-.564-.319zm.71.16v.274l.261-.261zm129.441 6.405v.405l.29.015zm-189.873-4.319-.274-.015-.03.29zm-2.998 1.724-.71.274-.015.262 1.404.174.017-.145zm-3.84.218h-.274zm-1.696.377.131.014-.406-.29zm7.926.97h.13l.146-.274-.842-.29-.13.26zm-31.02 16.836-.29-.29-.131.29zm-131.398 10.649.132.274.145-.029.536-2.029-.405-.218zm49.493 1.465.565-.305-.274-.116zm340.989 9.792.275.029-.275-.449zm-8.65 5.536.131.015c-.072-2.058-1.058-5.766-2.463-6.578l.42 1.013-.825.493c.027 1.783 1.274 4.085 2.463 4.752zm-.274-5.81-.274.115v.421l.694.071zm-387.946 8.258-.13.304.391.507.145-.029zm388.626-1.84-.275 1.26-1.116.043c.102 1.607 1.739 3.159 2.318 4.505l.405 3.072 1.782.985-.145-1.16.842.348.131.015c-.508-3.246-1.885-6.666-3.536-8.897zm22.632 3.898.419.303-.419-.869zm1.521 1.086.133.014-.422-.58zm-.971 2.043.406-.405-.682-.738.275.708-.55-.478zm1.233-.043.564.449v-.55l-.564-.319zm-4.262 1.738-.55-.754zm5.638 2.144v.419l.549.333zm-3.434 1.97v1.131l.391.462.421.174.145-.291zm1.1 2.912.536.463v-.565l-.68-.478zm5.086 5.927.406.869.159-.275zm-206.477 237.858-.42.291.29.273h.682v-.115zm1.13.45.276-.288-.29-.017zm-109.736 27.238h.26zm-.652 4.404.274.146.145-.146-.289-.273zm5.434 13.518.131-.146v-.158h-.552zm-3.738 2.68.274.434h.55v-.142zm.986 2.984.014.435h.42zm1.274 2.264h.29l-.144-.276zm26.977 29.959-.349-.348-.085-.014zm5.303.291.146-.291-1.826-.272zm-6.824-.291 1.537 1.116z"></path><path d="m358.826-65.886c-105.58 0-196.206 64.068-235.064 155.462 35.86-63.865 111.709-140.481 234.891-140.379 111.3.103 194.493 67.024 235.278 140.525-38.829-91.468-129.485-155.608-235.105-155.608"></path><path d="m602.348 266.93c-33.104 101.232-126.15 179.963-244.087 179.963-125.065 0-209.128-77.674-242.9-177.759 35.15 93.233 130.701 160.097 243.073 160.097 113.258-.001 209.447-67.906 243.914-162.301"></path><path d="m-78.034 260.483c-25.471 0-38.987-16.313-39.133-47.204l-.333-71.081 1.377-1.521 22.167-2.158 1.174.391.493 1.117.319 70.225c.072 15.461 5.969 23.299 17.489 23.299l2.795-.146c13.547-1.333 20.399-10.519 20.313-27.383l-.333-70.226 1.376-1.522 22.284-2.172 1.158.391.522 1.116.318 71.094c.103 19.054-5.694 51.595-45.464 55.463-2.247.201-4.421.317-6.522.317"></path><path d="m-2.214 250.328-1.044-.423-.493-1.098-.536-117.272 1.407-1.536 23.644-1.637 1.318.608 50.132 66.185-.305-68.937 1.419-1.507 19.14-1.333 1.145.391.478 1.116.549 117.285-1.418 1.521-19.648 1.361-1.346-.607-54.13-71.733.347 74.745-1.419 1.538-19.139 1.333z"></path><path d="m122.72 242.258-1.043-.421-.492-1.101-.696-116.895 1.448-1.534 25.501-1.263 1.115.393.478 1.101.565 116.922-1.448 1.537-25.355 1.261z"></path><path d="m216.577 238.288-1.39-.915-49.842-115.473.116-1.405 1.233-.71 29.12-.869 1.45.942 32.44 75.354 33.482-77.397 1.377-.898 22.965-.697 1.302.681.131 1.464-51.114 118.43-1.362.898-19.865.595z"></path><path d="m306.783 236.1-1.536-1.522-.696-116.909.45-1.1 1.057-.421 93.741-.116 1.507 1.521.13 22.762-.462 1.073-1.073.448-65.3.073.102 20.226 43.855-.043 1.522 1.52.116 22.951-.448 1.072-1.074.464-43.857.043.102 21.95 66.055-.087 1.52 1.523.116 22.933-.449 1.071-1.088.45z"></path><path d="m532.543 239.634h-.028l-30.323-.897-1.261-.769-25.63-44.175-16.62-.493.19 42.552-.464 1.104-1.115.418-25.572-.769-1.479-1.507-.536-117.284.449-1.088 1.104-.434 64.37 1.941c21.341.624 33.643 14.243 33.759 37.323.102 22.226-11.823 31.511-22.587 35.352l27.063 46.42v1.564zm-74.138-72.051 20.777.638 2.694.029h.016c7.635 0 12.127-1.101 14.562-3.551 1.941-1.955 2.782-5.013 2.753-9.939-.016-5.55-1.088-10.576-13.706-10.953l-27.21-.812z"></path><path d="m599.146 246.458c-1.623 0-3.259-.044-4.94-.131-18.108-.954-37.031-12.3-42.407-15.734l-.694-1.274-.13-27.052.795-1.346 1.579.073c16.387 10.938 32.063 18.036 40.9 18.517 8.418.449 13.938-.784 16.722-3.564 1.36-1.376 2.044-3.13 2.028-5.361-.016-2.652-2.725-5.215-8.533-8.1-3.376-1.737-7.477-3.404-11.794-5.171-18.256-7.477-43.293-17.749-43.423-45.451-.044-9.245 2.869-16.879 8.665-22.689 7.446-7.505 19.43-11.316 32.903-10.62 15.793.869 34.627 8.982 43.437 14.214l.752 1.333.103 26.181-.784 1.348-1.578-.074c-5.419-3.564-24.456-15.227-41.988-16.169-6.215-.333-9.302 1.317-10.663 2.68l-1.463 3.333c.015 2.839 2.811 5.723 8.549 8.809 3.461 1.855 7.866 3.709 12.546 5.68 17.997 7.563 42.669 17.937 42.771 42.841.06 11.085-3.157 19.983-9.56 26.414-7.48 7.517-18.84 11.313-33.793 11.313"></path><path d="m759.101 253.875-.115-.015-25.24-1.854-1.333-.987-8.478-23.603-41.03-3.013-8.678 22.181-1.538.942-21.153-1.534-1.173-.697-.131-1.389 45.319-114.91 1.554-.957 17.646 1.305 1.317 1 44.452 121.471-.203 1.45zm-66.185-54.65 21.197 1.565-10.416-28.717z"></path><path d="m849.609 262.265h-.142l-72.705-6.708-1.392-1.52-.679-118.69.505-1.131 1.175-.391 21.965 2.027 1.376 1.523.449 94.002 49.479 4.55 1.377 1.505.129 23.297-.507 1.131z"></path><path d="m124.43 494.399h-5.013l-1.694-3.577h-8.36l-1.797 3.577h-4.217l8.968-17.98h3.52zm-13.3-7.142h4.882l-2.391-5.012z"></path><path d="m167.562 494.909c-5.028 0-10.083-2.929-10.083-9.493 0-6.549 5.056-9.49 10.083-9.49 3.274 0 6.201 1.305 6.751 1.565l.435.188v4.072l-1.074-.566c-.505-.261-3.201-1.608-6.113-1.608-4.23 0-5.346 3.682-5.346 5.839 0 2.175 1.116 5.826 5.346 5.826 3.217 0 4.636-.726 5.752-1.333l1.55-.769v4.202l-.754.288c-1.49.569-3.359 1.279-6.547 1.279"></path><path d="m198.408 494.909c-5.028 0-10.084-2.929-10.084-9.477 0-6.577 5.056-9.505 10.084-9.505 5.042 0 10.098 2.928 10.098 9.505 0 6.548-5.055 9.477-10.098 9.477m0-15.316c-4.23 0-5.361 3.667-5.361 5.84 0 2.175 1.13 5.822 5.361 5.822 4.245 0 5.39-3.647 5.39-5.822 0-2.173-1.145-5.84-5.39-5.84"></path><path d="m243.222 494.416h-4.551v-9.26l-4.389 9.26h-2.55l-4.636-9.273v9.273h-3.695v-17.997h4.448l5.679 11.389 5.405-11.389h4.289z"></path><path d="m268.186 494.909c-5.029 0-10.099-2.929-10.099-9.493 0-6.549 5.07-9.49 10.099-9.49 3.274 0 6.201 1.305 6.751 1.565l.421.188v4.072l-1.061-.566c-.505-.261-3.215-1.608-6.113-1.608-4.23 0-5.361 3.682-5.361 5.839 0 2.175 1.129 5.826 5.361 5.826 3.217 0 4.622-.726 5.751-1.333l1.552-.769v4.202l-.769.288c-1.476.569-3.345 1.279-6.532 1.279"></path><path d="m308.376 494.399h-5.012l-1.695-3.577h-8.346l-1.812 3.577h-4.217l8.969-17.98h3.505zm-13.301-7.142h4.884l-2.39-5.012z"></path><path d="m328.385 494.909c-2.462 0-5.332-.914-7.114-1.813l-.406-.218v-4.17l1.071.578c1.812.955 4.723 1.956 6.449 1.956 2.374 0 3.607-.579 3.607-1.725 0-.941-2.202-1.608-4.505-2.331-3.696-1.146-6.883-2.609-6.883-6.175 0-3.085 2.839-5.086 7.258-5.086 2.666 0 5.897.942 7.246 1.596l.434.188v4.058l-1.057-.549c-.957-.509-3.985-1.64-6.623-1.64-1.463 0-2.432.508-2.432 1.246 0 1.044 1.491 1.567 3.954 2.32l1.84.592c2.768.943 5.591 2.317 5.591 5.288.001 2.204-1.084 5.885-8.43 5.885"></path><path d="m360.273 494.416h-4.549v-14.461h-6.158v-3.536h16.895v3.536h-6.188z"></path><path d="m409.593 494.909c-5.028 0-10.099-2.929-10.099-9.493 0-6.549 5.07-9.49 10.099-9.49 3.275 0 6.201 1.305 6.753 1.565l.418.188v4.072l-1.058-.566c-.506-.261-3.216-1.608-6.114-1.608-4.23 0-5.361 3.682-5.361 5.839 0 2.175 1.129 5.826 5.361 5.826 3.217 0 4.623-.726 5.767-1.333l1.536-.769v4.202l-.768.288c-1.477.569-3.346 1.279-6.534 1.279"></path><path d="m440.439 494.909c-5.041 0-10.099-2.929-10.099-9.477 0-6.577 5.057-9.505 10.099-9.505 5.043 0 10.1 2.928 10.1 9.505-.001 6.548-5.058 9.477-10.1 9.477m0-15.316c-4.23 0-5.36 3.667-5.36 5.84 0 2.175 1.129 5.822 5.36 5.822s5.375-3.647 5.375-5.822c0-2.173-1.144-5.84-5.375-5.84"></path><path d="m485.121 494.416h-4.549v-9.26l-4.389 9.26h-2.55l-4.637-9.273v9.273h-3.694v-17.997h4.447l5.694 11.389 5.391-11.389h4.287z"></path><path d="m505.275 494.416h-4.536v-17.997h9.751c4.78 0 7.114 2.015 7.114 6.102 0 6.056-4.26 6.837-7.94 6.837h-4.389zm0-8.593h3.533c3.102 0 3.869-.651 3.869-3.302 0-1.726-.954-2.565-2.969-2.565h-4.434v5.867z"></path><path d="m550.451 494.399h-5.013l-1.711-3.577h-8.33l-1.812 3.577h-4.218l8.969-17.98h3.506zm-13.286-7.142h4.867l-2.374-5.012z"></path><path d="m581.819 494.416h-3.767l-10.619-12.07v12.07h-3.682v-17.997h4.55l9.838 11.188v-11.188h3.68z"></path><path d="m607.623 494.416h-4.622v-6.579l-8.056-11.418h5.577l5.407 7.492 5.592-7.492h4.505l-8.403 11.447z"></path><path d="m872.676 240.372c5.406 0 9.94 4.26 9.94 9.853 0 5.682-4.534 9.954-9.94 9.954-5.419 0-9.982-4.275-9.982-9.954-.001-5.593 4.563-9.853 9.982-9.853m0 18.357c4.578 0 8.13-3.666 8.13-8.504 0-4.695-3.552-8.39-8.13-8.39-4.621 0-8.171 3.694-8.171 8.39 0 4.838 3.55 8.504 8.171 8.504m5.244-6.547c-.564 2.563-2.478 4.158-4.926 4.158-3.564 0-5.883-2.594-5.883-6.07 0-3.521 2.188-6.028 5.812-6.028 2.52 0 4.563 1.376 4.968 4.029h-1.666c-.29-1.479-1.536-2.579-3.29-2.579-2.607 0-4.025 1.999-4.025 4.534 0 2.492 1.577 4.665 4.085 4.665 1.754 0 2.984-1.145 3.23-2.709z"></path></g></svg>